<?xml version="1.0" standalone="no"?>
<!DOCTYPE svg PUBLIC "-//W3C//DTD SVG 1.0//EN" "http://www.w3.org/TR/2001/REC-SVG-20010904/DTD/svg10.dtd">
<svg xmlns="http://www.w3.org/2000/svg" xmlns:xlink="http://www.w3.org/1999/xlink" id="body_1" width="1024" height="768">

<g transform="matrix(2.6806285 0 0 2.6806285 -0 237.61089)">
    <path d="M151 82.84C 158.26 83.35999 166.72 77.71999 169.7 74.5C 180.06 63.29 180.31 47.08 169.87999 35.34C 165.99998 30.970001 156.87999 26.14 151.10999 26.82L151.10999 26.82L130.22 26.82L130.22 82.77L151.05 82.84L151 82.84zM142 70.72L142 38.87C 145.2698 38.65547 148.5502 38.65547 151.82 38.87C 154.3928 39.168346 156.84691 40.11832 158.95001 41.629997C 170.95001 49.829998 165.95001 69.38 151.62001 70.689995C 148.4176 70.915146 145.20374 70.92516 142 70.72z" stroke="none" fill="#008CEB" fill-rule="nonzero" />
    <path d="M334.39 82.94L346.3 82.94L346.3 70.88L369.93 70.88L370 82.88L381.91 82.88L381.91 63C 381.91 57 382.41 49.52 380.91 44.09C 378.1103 33.87431 368.85205 26.771673 358.2598 26.713463C 347.66757 26.65525 338.33185 33.6557 335.42 43.84C 333.82 49.2 334.36002 56.89 334.36002 62.84C 334.36002 69.56 334.29 76.32 334.36002 83.04L334.36002 83.04L334.39 82.94zM346.31003 58.75C 346.24002 53.75 345.71002 48.4 348.06003 44.55C 350.15982 40.941628 354.03534 38.738506 358.21002 38.78C 362.36017 38.810616 366.18857 41.02106 368.29 44.6C 370.61002 48.6 370.06 53.6 370 58.76z" stroke="none" fill="#008CEB" fill-rule="nonzero" />
    <path d="M198.19 82.93L210.06 82.93C 210.06 80.41 209.73999 72.7 210.17 70.87L210.17 70.87L233.70999 70.87L233.79 82.920006L245.68 82.920006C 245.62 76.240005 245.68 69.57001 245.68 62.920006C 245.68 57.220005 246.20999 49.060005 244.68 44.000008C 241.86267 33.798286 232.60556 26.714088 222.0221 26.66058C 211.43863 26.607067 202.11035 33.597294 199.18999 43.770008C 197.59999 48.97001 198.13998 56.920006 198.13998 62.710007C 198.13998 69.39001 197.98999 76.240005 198.13998 82.90001L198.13998 82.90001L198.19 82.93zM210.07 58.75C 209.99 53.75 209.48001 48.33 211.83 44.56C 213.92853 40.96234 217.78004 38.75008 221.945 38.75008C 226.10997 38.75008 229.96149 40.96234 232.06 44.56C 234.39 48.56 233.83 53.64 233.79 58.730003z" stroke="none" fill="#008CEB" fill-rule="nonzero" />
    <path d="M266.57 48.67L266.4 57C 266.4 64 266.06 77.07 266.4 82.76L266.4 82.76L278.04 82.76C 278.31 78.76 277.62 50.350002 278.35 49.440002C 278.35 43.920002 284.12 38.780003 289.94 38.760002C 292.96524 38.741795 295.87833 39.904152 298.06 42C 299.54 43.35 301.81 46.43 301.77 49.54C 302.31 49.850002 301.87997 79.54 302.05 82.83L302.05 82.83L313.7 82.83L313.61002 48.88C 313.90002 46.22 312.30002 42.11 311.27002 40.03C 307.3734 31.945004 299.22168 26.776161 290.247 26.699728C 281.2723 26.623293 273.03375 31.652544 269 39.67C 268 41.72 266.32 45.94 266.57 48.67z" stroke="none" fill="#008CEB" fill-rule="nonzero" />
    <path d="M109.22 54.61C 109.22001 69.69014 103.888374 82.56184 93.2251 93.2251C 82.56184 103.888374 69.69014 109.22001 54.61 109.22C 39.52987 109.22001 26.658165 103.888374 15.9949 93.2251C 5.3316336 82.56184 0 69.69014 0 54.61C 0 39.52987 5.3316336 26.658165 15.9949 15.9949C 26.658165 5.3316336 39.52987 0 54.61 0C 69.69014 0 82.56184 5.3316336 93.2251 15.9949C 103.888374 26.658165 109.22001 39.52987 109.22 54.61C 109.22001 55.245483 109.20892 55.880768 109.18674 56.51586" stroke="none" fill="#008CEB" fill-rule="nonzero" />
    <path d="M86.43 54.84L86.43 70.21C 86.43 71.21 86 71.42 85.16 70.93C 84.036316 70.25573 82.86676 69.66093 81.66 69.15C 78.01537 67.698044 74.0676 67.172356 70.170006 67.62C 65.91593 68.17186 61.740993 69.21896 57.730007 70.740005C 53.730007 72.090004 49.810005 73.55 45.730007 74.68001C 42.350704 75.68353 38.83386 76.14592 35.310005 76.05001C 31.404709 75.898506 27.60928 74.71503 24.310005 72.62001C 23.465792 72.11154 22.964155 71.18486 23 70.2C 23 60.13333 23 50.066666 23 40C 23 39.51 23 38.93 23.44 38.68C 23.880001 38.43 24.33 38.84 24.710001 39.09C 28.292679 41.512478 32.53592 42.769733 36.86 42.69C 39.951843 42.563164 43.00957 41.99405 45.94 41C 50.1 39.71 54.12 38 58.21 36.55C 61.393784 35.326454 64.6582 34.324066 67.979996 33.55C 73.74352 32.200306 79.808846 33.320564 84.70999 36.64C 85.84169 37.333378 86.51086 38.58375 86.45999 39.91C 86.45999 44.91 86.45999 49.91 86.45999 54.91L86.45999 54.91L86.43 54.84z" stroke="none" fill="#FEFEFE" fill-rule="nonzero" />
</g>
</svg>